<svg width="928" height="928" viewBox="-464,-547.52,928,928" style="width: 100%; height: auto; font: 10px sans-serif;" xmlns="http://www.w3.org/2000/svg" xmlns:xlink="http://www.w3.org/1999/xlink"><g fill="none" stroke="#555" stroke-opacity="0.4" stroke-width="1.5"><path d="M0,0C24.653,48.325,10.461,-53.232,20.922,-106.464"/><path d="M0,0C24.653,48.325,31.622,-44.08,63.245,-88.161"/><path d="M0,0C24.653,48.325,46.891,-27.282,93.782,-54.564"/><path d="M0,0C24.653,48.325,52.342,-14.26,104.685,-28.52"/><path d="M0,0C24.653,48.325,53.824,-6.789,107.647,-13.577"/><path d="M0,0C24.653,48.325,54.004,5.165,108.007,10.33"/><path d="M0,0C24.653,48.325,34.639,41.752,69.278,83.503"/><path d="M0,0C24.653,48.325,-7.059,53.789,-14.117,107.578"/><path d="M0,0C24.653,48.325,-39.653,37.023,-79.306,74.045"/><path d="M0,0C24.653,48.325,-49.237,-22.776,-98.475,-45.552"/><path d="M20.922,-106.464C31.384,-159.695,10.882,-162.386,14.509,-216.514"/><path d="M20.922,-106.464C31.384,-159.695,34.583,-159.033,46.111,-212.044"/><path d="M20.922,-106.464C31.384,-159.695,51.379,-154.427,68.505,-205.903"/><path d="M63.245,-88.161C94.867,-132.241,63.6,-149.809,84.8,-199.745"/><path d="M63.245,-88.161C94.867,-132.241,69.562,-147.135,92.749,-196.18"/><path d="M63.245,-88.161C94.867,-132.241,75.411,-144.225,100.548,-192.299"/><path d="M63.245,-88.161C94.867,-132.241,81.139,-141.082,108.185,-188.109"/><path d="M63.245,-88.161C94.867,-132.241,86.736,-137.711,115.648,-183.615"/><path d="M63.245,-88.161C94.867,-132.241,92.194,-134.119,122.925,-178.825"/><path d="M63.245,-88.161C94.867,-132.241,97.503,-130.31,130.004,-173.747"/><path d="M63.245,-88.161C94.867,-132.241,102.654,-126.292,136.873,-168.389"/><path d="M63.245,-88.161C94.867,-132.241,107.641,-122.07,143.521,-162.76"/><path d="M63.245,-88.161C94.867,-132.241,112.454,-117.651,149.938,-156.868"/><path d="M63.245,-88.161C94.867,-132.241,117.085,-113.043,156.114,-150.723"/><path d="M63.245,-88.161C94.867,-132.241,121.528,-108.252,162.037,-144.336"/><path d="M93.782,-54.564C140.673,-81.846,129.819,-98.155,173.092,-130.874"/><path d="M93.782,-54.564C140.673,-81.846,133.654,-92.866,178.206,-123.821"/><path d="M93.782,-54.564C140.673,-81.846,137.274,-87.426,183.032,-116.569"/><path d="M93.782,-54.564C140.673,-81.846,140.673,-81.846,187.563,-109.128"/><path d="M93.782,-54.564C140.673,-81.846,143.844,-76.134,191.792,-101.512"/><path d="M93.782,-54.564C140.673,-81.846,146.784,-70.299,195.712,-93.732"/><path d="M93.782,-54.564C140.673,-81.846,149.488,-64.351,199.317,-85.801"/><path d="M104.685,-28.52C157.027,-42.78,154.167,-52.153,205.557,-69.537"/><path d="M104.685,-28.52C157.027,-42.78,156.137,-45.923,208.182,-61.231"/><path d="M104.685,-28.52C157.027,-42.78,157.854,-39.619,210.472,-52.826"/><path d="M104.685,-28.52C157.027,-42.78,159.317,-33.252,212.423,-44.335"/><path d="M107.647,-13.577C161.471,-20.366,161.471,-20.366,215.294,-27.154"/><path d="M108.007,10.33C162.011,15.495,162.584,-7.348,216.779,-9.798"/><path d="M108.007,10.33C162.011,15.495,162.748,-0.817,216.997,-1.089"/><path d="M108.007,10.33C162.011,15.495,162.65,5.716,216.866,7.622"/><path d="M108.007,10.33C162.011,15.495,162.289,12.24,216.385,16.32"/><path d="M108.007,10.33C162.011,15.495,161.667,18.744,215.556,24.992"/><path d="M108.007,10.33C162.011,15.495,160.784,25.218,214.379,33.624"/><path d="M108.007,10.33C162.011,15.495,159.643,31.651,212.857,42.201"/><path d="M108.007,10.33C162.011,15.495,158.244,38.033,210.992,50.711"/><path d="M69.278,83.503C103.917,125.255,154.683,50.603,206.244,67.471"/><path d="M69.278,83.503C103.917,125.255,152.527,56.771,203.37,75.695"/><path d="M69.278,83.503C103.917,125.255,150.126,62.847,200.168,83.796"/><path d="M69.278,83.503C103.917,125.255,147.482,68.822,196.643,91.763"/><path d="M69.278,83.503C103.917,125.255,144.601,74.686,192.802,99.582"/><path d="M69.278,83.503C103.917,125.255,141.487,80.43,188.649,107.24"/><path d="M69.278,83.503C103.917,125.255,138.145,86.044,184.193,114.726"/><path d="M69.278,83.503C103.917,125.255,134.58,91.52,179.44,122.026"/><path d="M69.278,83.503C103.917,125.255,130.798,96.848,174.397,129.13"/><path d="M69.278,83.503C103.917,125.255,126.805,102.019,169.074,136.026"/><path d="M69.278,83.503C103.917,125.255,122.608,107.027,163.478,142.702"/><path d="M69.278,83.503C103.917,125.255,118.214,111.862,157.618,149.149"/><path d="M69.278,83.503C103.917,125.255,113.629,116.516,151.505,155.355"/><path d="M69.278,83.503C103.917,125.255,108.861,120.983,145.147,161.311"/><path d="M69.278,83.503C103.917,125.255,103.917,125.255,138.556,167.007"/><path d="M69.278,83.503C103.917,125.255,98.806,129.325,131.741,172.434"/><path d="M69.278,83.503C103.917,125.255,93.535,133.187,124.714,177.582"/><path d="M69.278,83.503C103.917,125.255,88.114,136.834,117.486,182.445"/><path d="M69.278,83.503C103.917,125.255,82.551,140.26,110.068,187.013"/><path d="M69.278,83.503C103.917,125.255,76.855,143.46,102.473,191.281"/><path d="M69.278,83.503C103.917,125.255,71.035,146.43,94.713,195.239"/><path d="M69.278,83.503C103.917,125.255,65.1,149.163,86.8,198.884"/><path d="M69.278,83.503C103.917,125.255,59.061,151.655,78.748,202.207"/><path d="M69.278,83.503C103.917,125.255,52.926,153.904,70.568,205.205"/><path d="M69.278,83.503C103.917,125.255,46.706,155.904,62.275,207.872"/><path d="M69.278,83.503C103.917,125.255,40.411,157.653,53.881,210.204"/><path d="M69.278,83.503C103.917,125.255,34.051,159.148,45.401,212.197"/><path d="M69.278,83.503C103.917,125.255,27.635,160.387,36.847,213.849"/><path d="M69.278,83.503C103.917,125.255,21.176,161.367,28.234,215.155"/><path d="M-14.117,107.578C-21.176,161.367,8.164,162.545,10.886,216.727"/><path d="M-14.117,107.578C-21.176,161.367,1.634,162.742,2.178,216.989"/><path d="M-14.117,107.578C-21.176,161.367,-4.9,162.676,-6.533,216.902"/><path d="M-14.117,107.578C-21.176,161.367,-11.425,162.348,-15.234,216.465"/><path d="M-14.117,107.578C-21.176,161.367,-17.932,161.759,-23.91,215.679"/><path d="M-14.117,107.578C-21.176,161.367,-24.41,160.909,-32.547,214.545"/><path d="M-14.117,107.578C-21.176,161.367,-30.849,159.8,-41.132,213.066"/><path d="M-14.117,107.578C-21.176,161.367,-37.238,158.433,-49.651,211.243"/><path d="M-14.117,107.578C-21.176,161.367,-43.567,156.81,-58.09,209.08"/><path d="M-14.117,107.578C-21.176,161.367,-49.826,154.935,-66.435,206.58"/><path d="M-79.306,74.045C-118.96,111.068,-62.093,150.439,-82.791,200.586"/><path d="M-79.306,74.045C-118.96,111.068,-68.081,147.826,-90.775,197.101"/><path d="M-79.306,74.045C-118.96,111.068,-73.96,144.974,-98.613,193.299"/><path d="M-79.306,74.045C-118.96,111.068,-79.719,141.889,-106.292,189.185"/><path d="M-79.306,74.045C-118.96,111.068,-85.35,138.575,-113.8,184.766"/><path d="M-79.306,74.045C-118.96,111.068,-90.843,135.037,-121.124,180.05"/><path d="M-79.306,74.045C-118.96,111.068,-96.19,131.282,-128.253,175.043"/><path d="M-79.306,74.045C-118.96,111.068,-101.382,127.316,-135.176,169.754"/><path d="M-79.306,74.045C-118.96,111.068,-106.41,123.144,-141.88,164.192"/><path d="M-79.306,74.045C-118.96,111.068,-111.267,118.774,-148.356,158.365"/><path d="M-79.306,74.045C-118.96,111.068,-115.945,114.212,-154.593,152.283"/><path d="M-79.306,74.045C-118.96,111.068,-120.435,109.466,-160.581,145.955"/><path d="M-79.306,74.045C-118.96,111.068,-124.732,104.544,-166.309,139.392"/><path d="M-79.306,74.045C-118.96,111.068,-128.828,99.453,-171.77,132.605"/><path d="M-79.306,74.045C-118.96,111.068,-132.716,94.203,-176.954,125.603"/><path d="M-79.306,74.045C-118.96,111.068,-136.39,88.8,-181.853,118.4"/><path d="M-79.306,74.045C-118.96,111.068,-139.844,83.254,-186.459,111.005"/><path d="M-79.306,74.045C-118.96,111.068,-147.019,69.808,-196.025,93.077"/><path d="M-79.306,74.045C-118.96,111.068,-154.341,51.637,-205.788,68.849"/><path d="M-98.475,-45.552C-147.712,-68.328,-158.975,34.849,-211.967,46.465"/><path d="M-98.475,-45.552C-147.712,-68.328,-160.246,28.44,-213.661,37.92"/><path d="M-98.475,-45.552C-147.712,-68.328,-162.404,-10.61,-216.538,-14.147"/><path d="M-98.475,-45.552C-147.712,-68.328,-152.337,-57.281,-203.116,-76.375"/><path d="M-98.475,-45.552C-147.712,-68.328,-137.856,-86.506,-183.808,-115.341"/><path d="M-98.475,-45.552C-147.712,-68.328,-126.463,-102.443,-168.618,-136.591"/><path d="M-98.475,-45.552C-147.712,-68.328,-76.374,-143.717,-101.833,-191.622"/><path d="M14.509,-216.514C18.137,-270.643,7.259,-271.153,8.711,-325.383"/><path d="M14.509,-216.514C18.137,-270.643,14.513,-270.861,17.416,-325.034"/><path d="M14.509,-216.514C18.137,-270.643,21.757,-270.376,26.108,-324.451"/><path d="M14.509,-216.514C18.137,-270.643,28.985,-269.697,34.782,-323.636"/><path d="M46.111,-212.044C57.638,-265.055,43.374,-267.76,52.048,-321.312"/><path d="M46.111,-212.044C57.638,-265.055,50.524,-266.503,60.629,-319.804"/><path d="M46.111,-212.044C57.638,-265.055,57.638,-265.055,69.166,-318.067"/><path d="M46.111,-212.044C57.638,-265.055,64.711,-263.418,77.653,-316.102"/><path d="M46.111,-212.044C57.638,-265.055,71.737,-261.592,86.085,-313.91"/><path d="M68.505,-205.903C85.631,-257.379,85.631,-257.379,102.758,-308.855"/><path d="M162.037,-144.336C202.547,-180.42,182.108,-201.031,218.529,-241.237"/><path d="M162.037,-144.336C202.547,-180.42,187.423,-196.085,224.907,-235.302"/><path d="M162.037,-144.336C202.547,-180.42,192.603,-190.999,231.124,-229.199"/><path d="M162.037,-144.336C202.547,-180.42,197.646,-185.776,237.175,-222.931"/><path d="M162.037,-144.336C202.547,-180.42,202.547,-180.42,243.056,-216.504"/><path d="M162.037,-144.336C202.547,-180.42,207.303,-174.935,248.763,-209.922"/><path d="M162.037,-144.336C202.547,-180.42,211.91,-169.324,254.292,-203.189"/><path d="M162.037,-144.336C202.547,-180.42,216.366,-163.592,259.639,-196.311"/><path d="M162.037,-144.336C202.547,-180.42,220.666,-157.743,264.799,-189.292"/><path d="M199.317,-85.801C249.146,-107.251,243.051,-120.428,291.661,-144.514"/><path d="M199.317,-85.801C249.146,-107.251,246.186,-113.881,295.424,-136.657"/><path d="M199.317,-85.801C249.146,-107.251,249.146,-107.251,298.975,-128.702"/><path d="M199.317,-85.801C249.146,-107.251,251.927,-100.545,302.312,-120.654"/><path d="M199.317,-85.801C249.146,-107.251,254.528,-93.767,305.433,-112.521"/><path d="M28.234,215.155C35.293,268.944,140.701,231.905,168.841,278.286"/><path d="M28.234,215.155C35.293,268.944,134.444,235.587,161.333,282.704"/><path d="M28.234,215.155C35.293,268.944,128.091,239.101,153.71,286.921"/><path d="M28.234,215.155C35.293,268.944,121.647,242.443,145.976,290.932"/><path d="M28.234,215.155C35.293,268.944,115.115,245.612,138.138,294.734"/><path d="M28.234,215.155C35.293,268.944,108.5,248.605,130.201,298.325"/><path d="M28.234,215.155C35.293,268.944,101.808,251.419,122.17,301.703"/><path d="M28.234,215.155C35.293,268.944,95.043,254.054,114.052,304.865"/><path d="M28.234,215.155C35.293,268.944,88.21,256.506,105.852,307.808"/><path d="M28.234,215.155C35.293,268.944,81.314,258.775,97.577,310.53"/><path d="M28.234,215.155C35.293,268.944,74.359,260.859,89.231,313.03"/><path d="M28.234,215.155C35.293,268.944,67.352,262.755,80.822,315.306"/><path d="M28.234,215.155C35.293,268.944,60.296,264.464,72.355,317.356"/><path d="M28.234,215.155C35.293,268.944,53.196,265.983,63.836,319.179"/><path d="M28.234,215.155C35.293,268.944,46.059,267.311,55.271,320.773"/><path d="M28.234,215.155C35.293,268.944,38.889,268.448,46.666,322.137"/><path d="M28.234,215.155C35.293,268.944,31.691,269.392,38.029,323.271"/><path d="M28.234,215.155C35.293,268.944,24.47,270.144,29.364,324.173"/><path d="M28.234,215.155C35.293,268.944,17.231,270.702,20.677,324.843"/><path d="M28.234,215.155C35.293,268.944,9.98,271.066,11.976,325.28"/><path d="M28.234,215.155C35.293,268.944,2.723,271.236,3.267,325.484"/><path d="M28.234,215.155C35.293,268.944,-4.537,271.212,-5.445,325.454"/><path d="M28.234,215.155C35.293,268.944,-11.794,270.993,-14.153,325.192"/><path d="M28.234,215.155C35.293,268.944,-19.042,270.581,-22.851,324.697"/><path d="M28.234,215.155C35.293,268.944,-26.277,269.974,-31.532,323.969"/><path d="M28.234,215.155C35.293,268.944,-33.492,269.174,-40.191,323.009"/><path d="M28.234,215.155C35.293,268.944,-40.684,268.182,-48.821,321.818"/><path d="M28.234,215.155C35.293,268.944,-47.847,266.997,-57.416,320.396"/><path d="M28.234,215.155C35.293,268.944,-54.975,265.621,-65.97,318.745"/><path d="M28.234,215.155C35.293,268.944,-62.064,264.054,-74.477,316.865"/><path d="M28.234,215.155C35.293,268.944,-69.108,262.299,-82.93,314.758"/><path d="M28.234,215.155C35.293,268.944,-76.103,260.355,-91.324,312.426"/><path d="M-186.459,111.005C-233.073,138.756,-231.196,141.863,-277.435,170.236"/><path d="M-186.459,111.005C-233.073,138.756,-234.909,135.625,-281.891,162.75"/><path d="M-196.025,93.077C-245.031,116.346,-241.83,122.862,-290.195,147.434"/><path d="M-196.025,93.077C-245.031,116.346,-245.031,116.346,-294.037,139.615"/><path d="M-196.025,93.077C-245.031,116.346,-248.057,109.747,-297.668,131.696"/><path d="M-205.788,68.849C-257.235,86.062,-253.574,96.317,-304.288,115.581"/><path d="M-205.788,68.849C-257.235,86.062,-256.06,89.496,-307.273,107.396"/><path d="M-205.788,68.849C-257.235,86.062,-258.364,82.612,-310.037,99.134"/><path d="M-205.788,68.849C-257.235,86.062,-260.482,75.668,-312.579,90.801"/><path d="M-213.661,37.92C-267.076,47.4,-264.158,61.622,-316.989,73.946"/><path d="M-213.661,37.92C-267.076,47.4,-265.712,54.531,-318.855,65.437"/><path d="M-213.661,37.92C-267.076,47.4,-267.076,47.4,-320.492,56.88"/><path d="M-213.661,37.92C-267.076,47.4,-268.249,40.235,-321.899,48.282"/><path d="M-213.661,37.92C-267.076,47.4,-269.23,33.042,-323.076,39.65"/><path d="M-216.538,-14.147C-270.673,-17.684,-270.612,18.589,-324.735,22.307"/><path d="M-216.538,-14.147C-270.673,-17.684,-271.013,11.341,-325.215,13.609"/><path d="M-216.538,-14.147C-270.673,-17.684,-271.219,4.084,-325.463,4.9"/><path d="M-216.538,-14.147C-270.673,-17.684,-271.231,-3.176,-325.478,-3.811"/><path d="M-216.538,-14.147C-270.673,-17.684,-271.049,-10.434,-325.259,-12.521"/><path d="M-216.538,-14.147C-270.673,-17.684,-270.673,-17.684,-324.808,-21.221"/><path d="M-216.538,-14.147C-270.673,-17.684,-270.103,-24.921,-324.123,-29.906"/><path d="M-216.538,-14.147C-270.673,-17.684,-269.339,-32.141,-323.207,-38.569"/><path d="M-216.538,-14.147C-270.673,-17.684,-268.382,-39.338,-322.059,-47.205"/><path d="M-216.538,-14.147C-270.673,-17.684,-267.233,-46.506,-320.68,-55.807"/><path d="M-216.538,-14.147C-270.673,-17.684,-265.893,-53.641,-319.072,-64.369"/><path d="M-203.116,-76.375C-253.894,-95.468,-262.642,-67.791,-315.171,-81.349"/><path d="M-203.116,-76.375C-253.894,-95.468,-260.734,-74.796,-312.881,-89.755"/><path d="M-203.116,-76.375C-253.894,-95.468,-258.639,-81.747,-310.367,-98.096"/><path d="M-203.116,-76.375C-253.894,-95.468,-256.358,-88.639,-307.63,-106.367"/><path d="M-203.116,-76.375C-253.894,-95.468,-253.894,-95.468,-304.673,-114.562"/><path d="M-203.116,-76.375C-253.894,-95.468,-251.249,-102.229,-301.498,-122.675"/><path d="M-203.116,-76.375C-253.894,-95.468,-248.423,-108.916,-298.107,-130.699"/><path d="M-203.116,-76.375C-253.894,-95.468,-245.419,-115.525,-294.503,-138.631"/><path d="M-203.116,-76.375C-253.894,-95.468,-242.239,-122.052,-290.687,-146.462"/><path d="M-183.808,-115.341C-229.76,-144.176,-235.362,-134.838,-282.434,-161.806"/><path d="M-183.808,-115.341C-229.76,-144.176,-231.669,-141.089,-278.003,-169.307"/><path d="M-183.808,-115.341C-229.76,-144.176,-227.81,-147.238,-273.372,-176.686"/><path d="M-183.808,-115.341C-229.76,-144.176,-223.788,-153.282,-268.546,-183.939"/><path d="M-168.618,-136.591C-210.772,-170.738,-215.266,-165.037,-258.319,-198.044"/><path d="M-168.618,-136.591C-210.772,-170.738,-210.772,-170.738,-252.927,-204.886"/><path d="M-168.618,-136.591C-210.772,-170.738,-206.127,-176.318,-247.353,-211.582"/><path d="M-101.833,-191.622C-127.291,-239.528,-196.398,-187.094,-235.678,-224.513"/><path d="M-101.833,-191.622C-127.291,-239.528,-191.321,-192.283,-229.585,-230.74"/><path d="M-101.833,-191.622C-127.291,-239.528,-186.106,-197.335,-223.328,-236.802"/><path d="M-101.833,-191.622C-127.291,-239.528,-180.759,-202.245,-216.91,-242.694"/><path d="M-101.833,-191.622C-127.291,-239.528,-175.281,-207.01,-210.338,-248.412"/><path d="M-101.833,-191.622C-127.291,-239.528,-169.679,-211.626,-203.614,-253.952"/><path d="M-101.833,-191.622C-127.291,-239.528,-163.954,-216.092,-196.745,-259.31"/><path d="M-101.833,-191.622C-127.291,-239.528,-141.476,-231.433,-169.771,-277.719"/><path d="M-101.833,-191.622C-127.291,-239.528,-117.574,-244.444,-141.089,-293.333"/><path d="M-101.833,-191.622C-127.291,-239.528,-97.588,-253.087,-117.106,-303.704"/><path d="M-101.833,-191.622C-127.291,-239.528,-45.164,-267.464,-54.197,-320.956"/><path d="M-290.687,-146.462C-339.135,-170.873,-344.126,-160.585,-393.286,-183.526"/><path d="M-290.687,-146.462C-339.135,-170.873,-340.833,-167.46,-389.523,-191.383"/><path d="M-290.687,-146.462C-339.135,-170.873,-337.403,-174.268,-385.603,-199.164"/><path d="M-290.687,-146.462C-339.135,-170.873,-333.837,-181.006,-381.528,-206.864"/><path d="M-196.745,-259.31C-229.536,-302.528,-235.562,-297.86,-269.214,-340.411"/><path d="M-196.745,-259.31C-229.536,-302.528,-229.536,-302.528,-262.327,-345.747"/><path d="M-196.745,-259.31C-229.536,-302.528,-223.417,-307.075,-255.334,-350.943"/><path d="M-169.771,-277.719C-198.067,-324.006,-210.912,-315.795,-241.042,-360.908"/><path d="M-169.771,-277.719C-198.067,-324.006,-204.53,-319.965,-233.749,-365.674"/><path d="M-169.771,-277.719C-198.067,-324.006,-198.067,-324.006,-226.362,-370.292"/><path d="M-169.771,-277.719C-198.067,-324.006,-191.523,-327.916,-218.883,-374.761"/><path d="M-169.771,-277.719C-198.067,-324.006,-184.902,-331.694,-211.317,-379.079"/><path d="M-141.089,-293.333C-164.604,-342.222,-171.44,-338.849,-195.931,-387.256"/><path d="M-141.089,-293.333C-164.604,-342.222,-164.604,-342.222,-188.119,-391.11"/><path d="M-141.089,-293.333C-164.604,-342.222,-157.701,-345.457,-180.23,-394.808"/><path d="M-117.106,-303.704C-136.624,-354.322,-143.709,-351.508,-164.238,-401.724"/><path d="M-117.106,-303.704C-136.624,-354.322,-136.624,-354.322,-156.142,-404.939"/><path d="M-117.106,-303.704C-136.624,-354.322,-129.484,-356.993,-147.982,-407.992"/><path d="M-54.197,-320.956C-63.23,-374.449,-115.051,-361.902,-131.487,-413.603"/><path d="M-54.197,-320.956C-63.23,-374.449,-107.763,-364.139,-123.158,-416.159"/><path d="M-54.197,-320.956C-63.23,-374.449,-100.432,-366.229,-114.78,-418.547"/><path d="M-54.197,-320.956C-63.23,-374.449,-93.061,-368.171,-106.355,-420.767"/><path d="M-54.197,-320.956C-63.23,-374.449,-85.652,-369.965,-97.888,-422.817"/><path d="M-54.197,-320.956C-63.23,-374.449,-78.209,-371.609,-89.381,-424.696"/><path d="M-54.197,-320.956C-63.23,-374.449,-70.734,-373.104,-80.838,-426.405"/><path d="M-54.197,-320.956C-63.23,-374.449,-63.23,-374.449,-72.263,-427.942"/><path d="M-54.197,-320.956C-63.23,-374.449,-55.701,-375.643,-63.659,-429.306"/><path d="M-54.197,-320.956C-63.23,-374.449,-48.15,-376.685,-55.028,-430.497"/><path d="M-54.197,-320.956C-63.23,-374.449,-40.579,-377.576,-46.376,-431.515"/><path d="M-54.197,-320.956C-63.23,-374.449,-32.992,-378.314,-37.705,-432.359"/><path d="M-54.197,-320.956C-63.23,-374.449,-25.391,-378.9,-29.019,-433.029"/><path d="M-54.197,-320.956C-63.23,-374.449,-17.781,-379.334,-20.321,-433.524"/><path d="M-54.197,-320.956C-63.23,-374.449,-10.163,-379.614,-11.615,-433.845"/></g><g><circle transform="rotate(62.97124600638978) translate(0,0)" fill="#555" r="2.5"/><circle transform="rotate(-78.88178913738017) translate(108.5,0)" fill="#555" r="2.5"/><circle transform="rotate(-54.345047923322674) translate(108.5,0)" fill="#555" r="2.5"/><circle transform="rotate(-30.19169329073482) translate(108.5,0)" fill="#555" r="2.5"/><circle transform="rotate(-15.23961661341852) translate(108.5,0)" fill="#555" r="2.5"/><circle transform="rotate(-7.188498402555894) translate(108.5,0)" fill="#555" r="2.5"/><circle transform="rotate(5.463258785942514) translate(108.5,0)" fill="#555" r="2.5"/><circle transform="rotate(50.3194888178914) translate(108.5,0)" fill="#555" r="2.5"/><circle transform="rotate(97.47603833865819) translate(108.5,0)" fill="#555" r="2.5"/><circle transform="rotate(136.96485623003196) translate(108.5,0)" fill="#555" r="2.5"/><circle transform="rotate(204.82428115015972) translate(108.5,0)" fill="#555" r="2.5"/><circle transform="rotate(-86.1661341853035) translate(217,0)" fill="#555" r="2.5"/><circle transform="rotate(-77.73162939297124) translate(217,0)" fill="#555" r="2.5"/><circle transform="rotate(-71.59744408945686) translate(217,0)" fill="#555" r="2.5"/><circle transform="rotate(-66.99680511182108) translate(217,0)" fill="#999" r="2.5"/><circle transform="rotate(-64.69648562300318) translate(217,0)" fill="#999" r="2.5"/><circle transform="rotate(-62.39616613418529) translate(217,0)" fill="#999" r="2.5"/><circle transform="rotate(-60.095846645367395) translate(217,0)" fill="#999" r="2.5"/><circle transform="rotate(-57.795527156549504) translate(217,0)" fill="#999" r="2.5"/><circle transform="rotate(-55.49520766773162) translate(217,0)" fill="#999" r="2.5"/><circle transform="rotate(-53.19488817891372) translate(217,0)" fill="#999" r="2.5"/><circle transform="rotate(-50.89456869009583) translate(217,0)" fill="#999" r="2.5"/><circle transform="rotate(-48.59424920127795) translate(217,0)" fill="#999" r="2.5"/><circle transform="rotate(-46.29392971246004) translate(217,0)" fill="#999" r="2.5"/><circle transform="rotate(-43.99361022364216) translate(217,0)" fill="#999" r="2.5"/><circle transform="rotate(-41.69329073482427) translate(217,0)" fill="#555" r="2.5"/><circle transform="rotate(-37.09265175718848) translate(217,0)" fill="#999" r="2.5"/><circle transform="rotate(-34.79233226837059) translate(217,0)" fill="#999" r="2.5"/><circle transform="rotate(-32.4920127795527) translate(217,0)" fill="#999" r="2.5"/><circle transform="rotate(-30.19169329073482) translate(217,0)" fill="#999" r="2.5"/><circle transform="rotate(-27.891373801916913) translate(217,0)" fill="#999" r="2.5"/><circle transform="rotate(-25.591054313099022) translate(217,0)" fill="#999" r="2.5"/><circle transform="rotate(-23.290734824281145) translate(217,0)" fill="#555" r="2.5"/><circle transform="rotate(-18.69009584664535) translate(217,0)" fill="#999" r="2.5"/><circle transform="rotate(-16.389776357827472) translate(217,0)" fill="#999" r="2.5"/><circle transform="rotate(-14.089456869009581) translate(217,0)" fill="#999" r="2.5"/><circle transform="rotate(-11.789137380191676) translate(217,0)" fill="#999" r="2.5"/><circle transform="rotate(-7.188498402555894) translate(217,0)" fill="#999" r="2.5"/><circle transform="rotate(-2.5878594249201257) translate(217,0)" fill="#999" r="2.5"/><circle transform="rotate(-0.2875399361022346) translate(217,0)" fill="#999" r="2.5"/><circle transform="rotate(2.012779552715685) translate(217,0)" fill="#999" r="2.5"/><circle transform="rotate(4.3130990415335475) translate(217,0)" fill="#999" r="2.5"/><circle transform="rotate(6.613418530351453) translate(217,0)" fill="#999" r="2.5"/><circle transform="rotate(8.913738019169344) translate(217,0)" fill="#999" r="2.5"/><circle transform="rotate(11.214057507987235) translate(217,0)" fill="#999" r="2.5"/><circle transform="rotate(13.514376996805126) translate(217,0)" fill="#999" r="2.5"/><circle transform="rotate(18.115015974440894) translate(217,0)" fill="#999" r="2.5"/><circle transform="rotate(20.415335463258785) translate(217,0)" fill="#999" r="2.5"/><circle transform="rotate(22.71565495207669) translate(217,0)" fill="#999" r="2.5"/><circle transform="rotate(25.01597444089458) translate(217,0)" fill="#999" r="2.5"/><circle transform="rotate(27.316293929712472) translate(217,0)" fill="#999" r="2.5"/><circle transform="rotate(29.616613418530363) translate(217,0)" fill="#999" r="2.5"/><circle transform="rotate(31.916932907348254) translate(217,0)" fill="#999" r="2.5"/><circle transform="rotate(34.21725239616613) translate(217,0)" fill="#999" r="2.5"/><circle transform="rotate(36.51757188498402) translate(217,0)" fill="#999" r="2.5"/><circle transform="rotate(38.81789137380193) translate(217,0)" fill="#999" r="2.5"/><circle transform="rotate(41.118210862619804) translate(217,0)" fill="#999" r="2.5"/><circle transform="rotate(43.41853035143771) translate(217,0)" fill="#999" r="2.5"/><circle transform="rotate(45.718849840255615) translate(217,0)" fill="#999" r="2.5"/><circle transform="rotate(48.01916932907346) translate(217,0)" fill="#999" r="2.5"/><circle transform="rotate(50.3194888178914) translate(217,0)" fill="#999" r="2.5"/><circle transform="rotate(52.619808306709274) translate(217,0)" fill="#999" r="2.5"/><circle transform="rotate(54.92012779552718) translate(217,0)" fill="#999" r="2.5"/><circle transform="rotate(57.220447284345056) translate(217,0)" fill="#999" r="2.5"/><circle transform="rotate(59.52076677316293) translate(217,0)" fill="#999" r="2.5"/><circle transform="rotate(61.82108626198084) translate(217,0)" fill="#999" r="2.5"/><circle transform="rotate(64.12140575079869) translate(217,0)" fill="#999" r="2.5"/><circle transform="rotate(66.42172523961659) translate(217,0)" fill="#999" r="2.5"/><circle transform="rotate(68.7220447284345) translate(217,0)" fill="#999" r="2.5"/><circle transform="rotate(71.0223642172524) translate(217,0)" fill="#999" r="2.5"/><circle transform="rotate(73.32268370607031) translate(217,0)" fill="#999" r="2.5"/><circle transform="rotate(75.62300319488818) translate(217,0)" fill="#999" r="2.5"/><circle transform="rotate(77.92332268370606) translate(217,0)" fill="#999" r="2.5"/><circle transform="rotate(80.22364217252394) translate(217,0)" fill="#999" r="2.5"/><circle transform="rotate(82.52396166134184) translate(217,0)" fill="#555" r="2.5"/><circle transform="rotate(87.12460063897765) translate(217,0)" fill="#999" r="2.5"/><circle transform="rotate(89.42492012779553) translate(217,0)" fill="#999" r="2.5"/><circle transform="rotate(91.72523961661344) translate(217,0)" fill="#999" r="2.5"/><circle transform="rotate(94.02555910543137) translate(217,0)" fill="#999" r="2.5"/><circle transform="rotate(96.32587859424919) translate(217,0)" fill="#999" r="2.5"/><circle transform="rotate(98.6261980830671) translate(217,0)" fill="#999" r="2.5"/><circle transform="rotate(100.92651757188503) translate(217,0)" fill="#999" r="2.5"/><circle transform="rotate(103.2268370607029) translate(217,0)" fill="#999" r="2.5"/><circle transform="rotate(105.52715654952081) translate(217,0)" fill="#999" r="2.5"/><circle transform="rotate(107.82747603833869) translate(217,0)" fill="#999" r="2.5"/><circle transform="rotate(112.42811501597447) translate(217,0)" fill="#999" r="2.5"/><circle transform="rotate(114.72843450479235) translate(217,0)" fill="#999" r="2.5"/><circle transform="rotate(117.02875399361025) translate(217,0)" fill="#999" r="2.5"/><circle transform="rotate(119.32907348242813) translate(217,0)" fill="#999" r="2.5"/><circle transform="rotate(121.629392971246) translate(217,0)" fill="#999" r="2.5"/><circle transform="rotate(123.92971246006391) translate(217,0)" fill="#999" r="2.5"/><circle transform="rotate(126.23003194888179) translate(217,0)" fill="#999" r="2.5"/><circle transform="rotate(128.5303514376997) translate(217,0)" fill="#999" r="2.5"/><circle transform="rotate(130.83067092651757) translate(217,0)" fill="#999" r="2.5"/><circle transform="rotate(133.1309904153355) translate(217,0)" fill="#999" r="2.5"/><circle transform="rotate(135.43130990415338) translate(217,0)" fill="#999" r="2.5"/><circle transform="rotate(137.73162939297123) translate(217,0)" fill="#999" r="2.5"/><circle transform="rotate(140.03194888178916) translate(217,0)" fill="#999" r="2.5"/><circle transform="rotate(142.33226837060707) translate(217,0)" fill="#999" r="2.5"/><circle transform="rotate(144.63258785942494) translate(217,0)" fill="#999" r="2.5"/><circle transform="rotate(146.93290734824285) translate(217,0)" fill="#999" r="2.5"/><circle transform="rotate(149.23322683706073) translate(217,0)" fill="#555" r="2.5"/><circle transform="rotate(154.60063897763578) translate(217,0)" fill="#555" r="2.5"/><circle transform="rotate(161.50159744408947) translate(217,0)" fill="#555" r="2.5"/><circle transform="rotate(167.6357827476038) translate(217,0)" fill="#999" r="2.5"/><circle transform="rotate(169.93610223642173) translate(217,0)" fill="#555" r="2.5"/><circle transform="rotate(183.73801916932905) translate(217,0)" fill="#555" r="2.5"/><circle transform="rotate(200.60702875399357) translate(217,0)" fill="#555" r="2.5"/><circle transform="rotate(212.10862619808302) translate(217,0)" fill="#555" r="2.5"/><circle transform="rotate(219.0095846645367) translate(217,0)" fill="#555" r="2.5"/><circle transform="rotate(242.01277955271559) translate(217,0)" fill="#555" r="2.5"/><circle transform="rotate(-88.4664536741214) translate(325.5,0)" fill="#999" r="2.5"/><circle transform="rotate(-86.9329073482428) translate(325.5,0)" fill="#999" r="2.5"/><circle transform="rotate(-85.39936102236422) translate(325.5,0)" fill="#999" r="2.5"/><circle transform="rotate(-83.86581469648561) translate(325.5,0)" fill="#999" r="2.5"/><circle transform="rotate(-80.79872204472842) translate(325.5,0)" fill="#999" r="2.5"/><circle transform="rotate(-79.26517571884983) translate(325.5,0)" fill="#999" r="2.5"/><circle transform="rotate(-77.73162939297123) translate(325.5,0)" fill="#999" r="2.5"/><circle transform="rotate(-76.19808306709264) translate(325.5,0)" fill="#999" r="2.5"/><circle transform="rotate(-74.66453674121405) translate(325.5,0)" fill="#999" r="2.5"/><circle transform="rotate(-71.59744408945686) translate(325.5,0)" fill="#999" r="2.5"/><circle transform="rotate(-47.82747603833864) translate(325.5,0)" fill="#999" r="2.5"/><circle transform="rotate(-46.29392971246004) translate(325.5,0)" fill="#999" r="2.5"/><circle transform="rotate(-44.760383386581445) translate(325.5,0)" fill="#999" r="2.5"/><circle transform="rotate(-43.22683706070286) translate(325.5,0)" fill="#999" r="2.5"/><circle transform="rotate(-41.69329073482427) translate(325.5,0)" fill="#999" r="2.5"/><circle transform="rotate(-40.15974440894566) translate(325.5,0)" fill="#999" r="2.5"/><circle transform="rotate(-38.626198083067074) translate(325.5,0)" fill="#999" r="2.5"/><circle transform="rotate(-37.09265175718848) translate(325.5,0)" fill="#999" r="2.5"/><circle transform="rotate(-35.55910543130988) translate(325.5,0)" fill="#999" r="2.5"/><circle transform="rotate(-26.35782747603833) translate(325.5,0)" fill="#999" r="2.5"/><circle transform="rotate(-24.824281150159734) translate(325.5,0)" fill="#999" r="2.5"/><circle transform="rotate(-23.290734824281145) translate(325.5,0)" fill="#999" r="2.5"/><circle transform="rotate(-21.75718849840254) translate(325.5,0)" fill="#999" r="2.5"/><circle transform="rotate(-20.223642172523967) translate(325.5,0)" fill="#999" r="2.5"/><circle transform="rotate(58.75399361022363) translate(325.5,0)" fill="#999" r="2.5"/><circle transform="rotate(60.28753993610226) translate(325.5,0)" fill="#999" r="2.5"/><circle transform="rotate(61.82108626198084) translate(325.5,0)" fill="#999" r="2.5"/><circle transform="rotate(63.35463258785944) translate(325.5,0)" fill="#999" r="2.5"/><circle transform="rotate(64.88817891373802) translate(325.5,0)" fill="#999" r="2.5"/><circle transform="rotate(66.42172523961659) translate(325.5,0)" fill="#999" r="2.5"/><circle transform="rotate(67.95527156549522) translate(325.5,0)" fill="#999" r="2.5"/><circle transform="rotate(69.48881789137383) translate(325.5,0)" fill="#999" r="2.5"/><circle transform="rotate(71.0223642172524) translate(325.5,0)" fill="#999" r="2.5"/><circle transform="rotate(72.55591054313098) translate(325.5,0)" fill="#999" r="2.5"/><circle transform="rotate(74.08945686900958) translate(325.5,0)" fill="#999" r="2.5"/><circle transform="rotate(75.62300319488818) translate(325.5,0)" fill="#999" r="2.5"/><circle transform="rotate(77.15654952076676) translate(325.5,0)" fill="#999" r="2.5"/><circle transform="rotate(78.69009584664539) translate(325.5,0)" fill="#999" r="2.5"/><circle transform="rotate(80.22364217252394) translate(325.5,0)" fill="#999" r="2.5"/><circle transform="rotate(81.75718849840257) translate(325.5,0)" fill="#999" r="2.5"/><circle transform="rotate(83.29073482428117) translate(325.5,0)" fill="#999" r="2.5"/><circle transform="rotate(84.82428115015975) translate(325.5,0)" fill="#999" r="2.5"/><circle transform="rotate(86.35782747603832) translate(325.5,0)" fill="#999" r="2.5"/><circle transform="rotate(87.89137380191693) translate(325.5,0)" fill="#999" r="2.5"/><circle transform="rotate(89.42492012779553) translate(325.5,0)" fill="#999" r="2.5"/><circle transform="rotate(90.9584664536741) translate(325.5,0)" fill="#999" r="2.5"/><circle transform="rotate(92.49201277955271) translate(325.5,0)" fill="#999" r="2.5"/><circle transform="rotate(94.02555910543128) translate(325.5,0)" fill="#999" r="2.5"/><circle transform="rotate(95.55910543130986) translate(325.5,0)" fill="#999" r="2.5"/><circle transform="rotate(97.09265175718849) translate(325.5,0)" fill="#999" r="2.5"/><circle transform="rotate(98.62619808306707) translate(325.5,0)" fill="#999" r="2.5"/><circle transform="rotate(100.1597444089457) translate(325.5,0)" fill="#999" r="2.5"/><circle transform="rotate(101.6932907348243) translate(325.5,0)" fill="#999" r="2.5"/><circle transform="rotate(103.22683706070285) translate(325.5,0)" fill="#999" r="2.5"/><circle transform="rotate(104.76038338658148) translate(325.5,0)" fill="#999" r="2.5"/><circle transform="rotate(106.29392971246006) translate(325.5,0)" fill="#999" r="2.5"/><circle transform="rotate(148.46645367412142) translate(325.5,0)" fill="#999" r="2.5"/><circle transform="rotate(149.99999999999997) translate(325.5,0)" fill="#999" r="2.5"/><circle transform="rotate(153.06709265175724) translate(325.5,0)" fill="#999" r="2.5"/><circle transform="rotate(154.60063897763578) translate(325.5,0)" fill="#999" r="2.5"/><circle transform="rotate(156.13418530351439) translate(325.5,0)" fill="#999" r="2.5"/><circle transform="rotate(159.20127795527156) translate(325.5,0)" fill="#999" r="2.5"/><circle transform="rotate(160.73482428115017) translate(325.5,0)" fill="#999" r="2.5"/><circle transform="rotate(162.26837060702877) translate(325.5,0)" fill="#999" r="2.5"/><circle transform="rotate(163.80191693290735) translate(325.5,0)" fill="#999" r="2.5"/><circle transform="rotate(166.86900958466452) translate(325.5,0)" fill="#999" r="2.5"/><circle transform="rotate(168.40255591054307) translate(325.5,0)" fill="#999" r="2.5"/><circle transform="rotate(169.93610223642173) translate(325.5,0)" fill="#999" r="2.5"/><circle transform="rotate(171.46964856230028) translate(325.5,0)" fill="#999" r="2.5"/><circle transform="rotate(173.00319488817888) translate(325.5,0)" fill="#999" r="2.5"/><circle transform="rotate(176.0702875399361) translate(325.5,0)" fill="#999" r="2.5"/><circle transform="rotate(177.6038338658147) translate(325.5,0)" fill="#999" r="2.5"/><circle transform="rotate(179.1373801916933) translate(325.5,0)" fill="#999" r="2.5"/><circle transform="rotate(180.67092651757184) translate(325.5,0)" fill="#999" r="2.5"/><circle transform="rotate(182.20447284345045) translate(325.5,0)" fill="#999" r="2.5"/><circle transform="rotate(183.73801916932905) translate(325.5,0)" fill="#999" r="2.5"/><circle transform="rotate(185.2715654952076) translate(325.5,0)" fill="#999" r="2.5"/><circle transform="rotate(186.8051118210862) translate(325.5,0)" fill="#999" r="2.5"/><circle transform="rotate(188.33865814696486) translate(325.5,0)" fill="#999" r="2.5"/><circle transform="rotate(189.8722044728434) translate(325.5,0)" fill="#999" r="2.5"/><circle transform="rotate(191.405750798722) translate(325.5,0)" fill="#999" r="2.5"/><circle transform="rotate(194.47284345047927) translate(325.5,0)" fill="#999" r="2.5"/><circle transform="rotate(196.00638977635782) translate(325.5,0)" fill="#999" r="2.5"/><circle transform="rotate(197.53993610223637) translate(325.5,0)" fill="#999" r="2.5"/><circle transform="rotate(199.07348242811497) translate(325.5,0)" fill="#999" r="2.5"/><circle transform="rotate(200.60702875399363) translate(325.5,0)" fill="#999" r="2.5"/><circle transform="rotate(202.14057507987218) translate(325.5,0)" fill="#999" r="2.5"/><circle transform="rotate(203.67412140575078) translate(325.5,0)" fill="#999" r="2.5"/><circle transform="rotate(205.20766773162939) translate(325.5,0)" fill="#999" r="2.5"/><circle transform="rotate(206.741214057508) translate(325.5,0)" fill="#555" r="2.5"/><circle transform="rotate(209.80830670926508) translate(325.5,0)" fill="#999" r="2.5"/><circle transform="rotate(211.34185303514374) translate(325.5,0)" fill="#999" r="2.5"/><circle transform="rotate(212.8753993610223) translate(325.5,0)" fill="#999" r="2.5"/><circle transform="rotate(214.40894568690095) translate(325.5,0)" fill="#999" r="2.5"/><circle transform="rotate(217.4760383386581) translate(325.5,0)" fill="#999" r="2.5"/><circle transform="rotate(219.0095846645367) translate(325.5,0)" fill="#999" r="2.5"/><circle transform="rotate(220.5431309904153) translate(325.5,0)" fill="#999" r="2.5"/><circle transform="rotate(223.6102236421724) translate(325.5,0)" fill="#999" r="2.5"/><circle transform="rotate(225.14376996805106) translate(325.5,0)" fill="#999" r="2.5"/><circle transform="rotate(226.67731629392972) translate(325.5,0)" fill="#999" r="2.5"/><circle transform="rotate(228.21086261980827) translate(325.5,0)" fill="#999" r="2.5"/><circle transform="rotate(229.74440894568687) translate(325.5,0)" fill="#999" r="2.5"/><circle transform="rotate(231.27795527156547) translate(325.5,0)" fill="#999" r="2.5"/><circle transform="rotate(232.81150159744402) translate(325.5,0)" fill="#555" r="2.5"/><circle transform="rotate(238.56230031948877) translate(325.5,0)" fill="#555" r="2.5"/><circle transform="rotate(244.31309904153352) translate(325.5,0)" fill="#555" r="2.5"/><circle transform="rotate(248.91373801916927) translate(325.5,0)" fill="#555" r="2.5"/><circle transform="rotate(260.4153354632587) translate(325.5,0)" fill="#555" r="2.5"/><circle transform="rotate(205.01597444089452) translate(434,0)" fill="#999" r="2.5"/><circle transform="rotate(206.16613418530346) translate(434,0)" fill="#999" r="2.5"/><circle transform="rotate(207.31629392971246) translate(434,0)" fill="#999" r="2.5"/><circle transform="rotate(208.4664536741214) translate(434,0)" fill="#999" r="2.5"/><circle transform="rotate(231.66134185303508) translate(434,0)" fill="#999" r="2.5"/><circle transform="rotate(232.81150159744402) translate(434,0)" fill="#999" r="2.5"/><circle transform="rotate(233.96166134185296) translate(434,0)" fill="#999" r="2.5"/><circle transform="rotate(236.2619808306709) translate(434,0)" fill="#999" r="2.5"/><circle transform="rotate(237.41214057507983) translate(434,0)" fill="#999" r="2.5"/><circle transform="rotate(238.56230031948877) translate(434,0)" fill="#999" r="2.5"/><circle transform="rotate(239.7124600638977) translate(434,0)" fill="#999" r="2.5"/><circle transform="rotate(240.86261980830665) translate(434,0)" fill="#999" r="2.5"/><circle transform="rotate(243.16293929712458) translate(434,0)" fill="#999" r="2.5"/><circle transform="rotate(244.31309904153352) translate(434,0)" fill="#999" r="2.5"/><circle transform="rotate(245.46325878594246) translate(434,0)" fill="#999" r="2.5"/><circle transform="rotate(247.76357827476033) translate(434,0)" fill="#999" r="2.5"/><circle transform="rotate(248.91373801916927) translate(434,0)" fill="#999" r="2.5"/><circle transform="rotate(250.0638977635782) translate(434,0)" fill="#999" r="2.5"/><circle transform="rotate(252.3642172523961) translate(434,0)" fill="#999" r="2.5"/><circle transform="rotate(253.51437699680503) translate(434,0)" fill="#999" r="2.5"/><circle transform="rotate(254.66453674121396) translate(434,0)" fill="#999" r="2.5"/><circle transform="rotate(255.8146964856229) translate(434,0)" fill="#999" r="2.5"/><circle transform="rotate(256.9648562300319) translate(434,0)" fill="#999" r="2.5"/><circle transform="rotate(258.11501597444084) translate(434,0)" fill="#999" r="2.5"/><circle transform="rotate(259.2651757188498) translate(434,0)" fill="#999" r="2.5"/><circle transform="rotate(260.4153354632587) translate(434,0)" fill="#999" r="2.5"/><circle transform="rotate(261.56549520766765) translate(434,0)" fill="#999" r="2.5"/><circle transform="rotate(262.7156549520766) translate(434,0)" fill="#999" r="2.5"/><circle transform="rotate(263.86581469648553) translate(434,0)" fill="#999" r="2.5"/><circle transform="rotate(265.0159744408945) translate(434,0)" fill="#999" r="2.5"/><circle transform="rotate(266.16613418530346) translate(434,0)" fill="#999" r="2.5"/><circle transform="rotate(267.3162939297124) translate(434,0)" fill="#999" r="2.5"/><circle transform="rotate(268.46645367412134) translate(434,0)" fill="#999" r="2.5"/></g><g stroke-linejoin="round" stroke-width="3"><text transform="rotate(62.97124600638978) translate(0,0) rotate(0)" dy="0.31em" x="-6" text-anchor="end" paint-order="stroke" stroke="white" fill="currentColor">flare</text><text transform="rotate(-78.88178913738017) translate(108.5,0) rotate(0)" dy="0.31em" x="-6" text-anchor="end" paint-order="stroke" stroke="white" fill="currentColor">analytics</text><text transform="rotate(-54.345047923322674) translate(108.5,0) rotate(0)" dy="0.31em" x="-6" text-anchor="end" paint-order="stroke" stroke="white" fill="currentColor">animate</text><text transform="rotate(-30.19169329073482) translate(108.5,0) rotate(0)" dy="0.31em" x="-6" text-anchor="end" paint-order="stroke" stroke="white" fill="currentColor">data</text><text transform="rotate(-15.23961661341852) translate(108.5,0) rotate(0)" dy="0.31em" x="-6" text-anchor="end" paint-order="stroke" stroke="white" fill="currentColor">display</text><text transform="rotate(-7.188498402555894) translate(108.5,0) rotate(0)" dy="0.31em" x="-6" text-anchor="end" paint-order="stroke" stroke="white" fill="currentColor">flex</text><text transform="rotate(5.463258785942514) translate(108.5,0) rotate(0)" dy="0.31em" x="-6" text-anchor="end" paint-order="stroke" stroke="white" fill="currentColor">physics</text><text transform="rotate(50.3194888178914) translate(108.5,0) rotate(0)" dy="0.31em" x="-6" text-anchor="end" paint-order="stroke" stroke="white" fill="currentColor">query</text><text transform="rotate(97.47603833865819) translate(108.5,0) rotate(180)" dy="0.31em" x="6" text-anchor="start" paint-order="stroke" stroke="white" fill="currentColor">scale</text><text transform="rotate(136.96485623003196) translate(108.5,0) rotate(180)" dy="0.31em" x="6" text-anchor="start" paint-order="stroke" stroke="white" fill="currentColor">util</text><text transform="rotate(204.82428115015972) translate(108.5,0) rotate(180)" dy="0.31em" x="6" text-anchor="start" paint-order="stroke" stroke="white" fill="currentColor">vis</text><text transform="rotate(-86.1661341853035) translate(217,0) rotate(0)" dy="0.31em" x="-6" text-anchor="end" paint-order="stroke" stroke="white" fill="currentColor">cluster</text><text transform="rotate(-77.73162939297124) translate(217,0) rotate(0)" dy="0.31em" x="-6" text-anchor="end" paint-order="stroke" stroke="white" fill="currentColor">graph</text><text transform="rotate(-71.59744408945686) translate(217,0) rotate(0)" dy="0.31em" x="-6" text-anchor="end" paint-order="stroke" stroke="white" fill="currentColor">optimization</text><text transform="rotate(-66.99680511182108) translate(217,0) rotate(0)" dy="0.31em" x="6" text-anchor="start" paint-order="stroke" stroke="white" fill="currentColor">Easing</text><text transform="rotate(-64.69648562300318) translate(217,0) rotate(0)" dy="0.31em" x="6" text-anchor="start" paint-order="stroke" stroke="white" fill="currentColor">FunctionSequence</text><text transform="rotate(-62.39616613418529) translate(217,0) rotate(0)" dy="0.31em" x="6" text-anchor="start" paint-order="stroke" stroke="white" fill="currentColor">ISchedulable</text><text transform="rotate(-60.095846645367395) translate(217,0) rotate(0)" dy="0.31em" x="6" text-anchor="start" paint-order="stroke" stroke="white" fill="currentColor">Parallel</text><text transform="rotate(-57.795527156549504) translate(217,0) rotate(0)" dy="0.31em" x="6" text-anchor="start" paint-order="stroke" stroke="white" fill="currentColor">Pause</text><text transform="rotate(-55.49520766773162) translate(217,0) rotate(0)" dy="0.31em" x="6" text-anchor="start" paint-order="stroke" stroke="white" fill="currentColor">Scheduler</text><text transform="rotate(-53.19488817891372) translate(217,0) rotate(0)" dy="0.31em" x="6" text-anchor="start" paint-order="stroke" stroke="white" fill="currentColor">Sequence</text><text transform="rotate(-50.89456869009583) translate(217,0) rotate(0)" dy="0.31em" x="6" text-anchor="start" paint-order="stroke" stroke="white" fill="currentColor">Transition</text><text transform="rotate(-48.59424920127795) translate(217,0) rotate(0)" dy="0.31em" x="6" text-anchor="start" paint-order="stroke" stroke="white" fill="currentColor">TransitionEvent</text><text transform="rotate(-46.29392971246004) translate(217,0) rotate(0)" dy="0.31em" x="6" text-anchor="start" paint-order="stroke" stroke="white" fill="currentColor">Transitioner</text><text transform="rotate(-43.99361022364216) translate(217,0) rotate(0)" dy="0.31em" x="6" text-anchor="start" paint-order="stroke" stroke="white" fill="currentColor">Tween</text><text transform="rotate(-41.69329073482427) translate(217,0) rotate(0)" dy="0.31em" x="-6" text-anchor="end" paint-order="stroke" stroke="white" fill="currentColor">interpolate</text><text transform="rotate(-37.09265175718848) translate(217,0) rotate(0)" dy="0.31em" x="6" text-anchor="start" paint-order="stroke" stroke="white" fill="currentColor">DataField</text><text transform="rotate(-34.79233226837059) translate(217,0) rotate(0)" dy="0.31em" x="6" text-anchor="start" paint-order="stroke" stroke="white" fill="currentColor">DataSchema</text><text transform="rotate(-32.4920127795527) translate(217,0) rotate(0)" dy="0.31em" x="6" text-anchor="start" paint-order="stroke" stroke="white" fill="currentColor">DataSet</text><text transform="rotate(-30.19169329073482) translate(217,0) rotate(0)" dy="0.31em" x="6" text-anchor="start" paint-order="stroke" stroke="white" fill="currentColor">DataSource</text><text transform="rotate(-27.891373801916913) translate(217,0) rotate(0)" dy="0.31em" x="6" text-anchor="start" paint-order="stroke" stroke="white" fill="currentColor">DataTable</text><text transform="rotate(-25.591054313099022) translate(217,0) rotate(0)" dy="0.31em" x="6" text-anchor="start" paint-order="stroke" stroke="white" fill="currentColor">DataUtil</text><text transform="rotate(-23.290734824281145) translate(217,0) rotate(0)" dy="0.31em" x="-6" text-anchor="end" paint-order="stroke" stroke="white" fill="currentColor">converters</text><text transform="rotate(-18.69009584664535) translate(217,0) rotate(0)" dy="0.31em" x="6" text-anchor="start" paint-order="stroke" stroke="white" fill="currentColor">DirtySprite</text><text transform="rotate(-16.389776357827472) translate(217,0) rotate(0)" dy="0.31em" x="6" text-anchor="start" paint-order="stroke" stroke="white" fill="currentColor">LineSprite</text><text transform="rotate(-14.089456869009581) translate(217,0) rotate(0)" dy="0.31em" x="6" text-anchor="start" paint-order="stroke" stroke="white" fill="currentColor">RectSprite</text><text transform="rotate(-11.789137380191676) translate(217,0) rotate(0)" dy="0.31em" x="6" text-anchor="start" paint-order="stroke" stroke="white" fill="currentColor">TextSprite</text><text transform="rotate(-7.188498402555894) translate(217,0) rotate(0)" dy="0.31em" x="6" text-anchor="start" paint-order="stroke" stroke="white" fill="currentColor">FlareVis</text><text transform="rotate(-2.5878594249201257) translate(217,0) rotate(0)" dy="0.31em" x="6" text-anchor="start" paint-order="stroke" stroke="white" fill="currentColor">DragForce</text><text transform="rotate(-0.2875399361022346) translate(217,0) rotate(0)" dy="0.31em" x="6" text-anchor="start" paint-order="stroke" stroke="white" fill="currentColor">GravityForce</text><text transform="rotate(2.012779552715685) translate(217,0) rotate(0)" dy="0.31em" x="6" text-anchor="start" paint-order="stroke" stroke="white" fill="currentColor">IForce</text><text transform="rotate(4.3130990415335475) translate(217,0) rotate(0)" dy="0.31em" x="6" text-anchor="start" paint-order="stroke" stroke="white" fill="currentColor">NBodyForce</text><text transform="rotate(6.613418530351453) translate(217,0) rotate(0)" dy="0.31em" x="6" text-anchor="start" paint-order="stroke" stroke="white" fill="currentColor">Particle</text><text transform="rotate(8.913738019169344) translate(217,0) rotate(0)" dy="0.31em" x="6" text-anchor="start" paint-order="stroke" stroke="white" fill="currentColor">Simulation</text><text transform="rotate(11.214057507987235) translate(217,0) rotate(0)" dy="0.31em" x="6" text-anchor="start" paint-order="stroke" stroke="white" fill="currentColor">Spring</text><text transform="rotate(13.514376996805126) translate(217,0) rotate(0)" dy="0.31em" x="6" text-anchor="start" paint-order="stroke" stroke="white" fill="currentColor">SpringForce</text><text transform="rotate(18.115015974440894) translate(217,0) rotate(0)" dy="0.31em" x="6" text-anchor="start" paint-order="stroke" stroke="white" fill="currentColor">AggregateExpression</text><text transform="rotate(20.415335463258785) translate(217,0) rotate(0)" dy="0.31em" x="6" text-anchor="start" paint-order="stroke" stroke="white" fill="currentColor">And</text><text transform="rotate(22.71565495207669) translate(217,0) rotate(0)" dy="0.31em" x="6" text-anchor="start" paint-order="stroke" stroke="white" fill="currentColor">Arithmetic</text><text transform="rotate(25.01597444089458) translate(217,0) rotate(0)" dy="0.31em" x="6" text-anchor="start" paint-order="stroke" stroke="white" fill="currentColor">Average</text><text transform="rotate(27.316293929712472) translate(217,0) rotate(0)" dy="0.31em" x="6" text-anchor="start" paint-order="stroke" stroke="white" fill="currentColor">BinaryExpression</text><text transform="rotate(29.616613418530363) translate(217,0) rotate(0)" dy="0.31em" x="6" text-anchor="start" paint-order="stroke" stroke="white" fill="currentColor">Comparison</text><text transform="rotate(31.916932907348254) translate(217,0) rotate(0)" dy="0.31em" x="6" text-anchor="start" paint-order="stroke" stroke="white" fill="currentColor">CompositeExpression</text><text transform="rotate(34.21725239616613) translate(217,0) rotate(0)" dy="0.31em" x="6" text-anchor="start" paint-order="stroke" stroke="white" fill="currentColor">Count</text><text transform="rotate(36.51757188498402) translate(217,0) rotate(0)" dy="0.31em" x="6" text-anchor="start" paint-order="stroke" stroke="white" fill="currentColor">DateUtil</text><text transform="rotate(38.81789137380193) translate(217,0) rotate(0)" dy="0.31em" x="6" text-anchor="start" paint-order="stroke" stroke="white" fill="currentColor">Distinct</text><text transform="rotate(41.118210862619804) translate(217,0) rotate(0)" dy="0.31em" x="6" text-anchor="start" paint-order="stroke" stroke="white" fill="currentColor">Expression</text><text transform="rotate(43.41853035143771) translate(217,0) rotate(0)" dy="0.31em" x="6" text-anchor="start" paint-order="stroke" stroke="white" fill="currentColor">ExpressionIterator</text><text transform="rotate(45.718849840255615) translate(217,0) rotate(0)" dy="0.31em" x="6" text-anchor="start" paint-order="stroke" stroke="white" fill="currentColor">Fn</text><text transform="rotate(48.01916932907346) translate(217,0) rotate(0)" dy="0.31em" x="6" text-anchor="start" paint-order="stroke" stroke="white" fill="currentColor">If</text><text transform="rotate(50.3194888178914) translate(217,0) rotate(0)" dy="0.31em" x="6" text-anchor="start" paint-order="stroke" stroke="white" fill="currentColor">IsA</text><text transform="rotate(52.619808306709274) translate(217,0) rotate(0)" dy="0.31em" x="6" text-anchor="start" paint-order="stroke" stroke="white" fill="currentColor">Literal</text><text transform="rotate(54.92012779552718) translate(217,0) rotate(0)" dy="0.31em" x="6" text-anchor="start" paint-order="stroke" stroke="white" fill="currentColor">Match</text><text transform="rotate(57.220447284345056) translate(217,0) rotate(0)" dy="0.31em" x="6" text-anchor="start" paint-order="stroke" stroke="white" fill="currentColor">Maximum</text><text transform="rotate(59.52076677316293) translate(217,0) rotate(0)" dy="0.31em" x="6" text-anchor="start" paint-order="stroke" stroke="white" fill="currentColor">Minimum</text><text transform="rotate(61.82108626198084) translate(217,0) rotate(0)" dy="0.31em" x="6" text-anchor="start" paint-order="stroke" stroke="white" fill="currentColor">Not</text><text transform="rotate(64.12140575079869) translate(217,0) rotate(0)" dy="0.31em" x="6" text-anchor="start" paint-order="stroke" stroke="white" fill="currentColor">Or</text><text transform="rotate(66.42172523961659) translate(217,0) rotate(0)" dy="0.31em" x="6" text-anchor="start" paint-order="stroke" stroke="white" fill="currentColor">Query</text><text transform="rotate(68.7220447284345) translate(217,0) rotate(0)" dy="0.31em" x="6" text-anchor="start" paint-order="stroke" stroke="white" fill="currentColor">Range</text><text transform="rotate(71.0223642172524) translate(217,0) rotate(0)" dy="0.31em" x="6" text-anchor="start" paint-order="stroke" stroke="white" fill="currentColor">StringUtil</text><text transform="rotate(73.32268370607031) translate(217,0) rotate(0)" dy="0.31em" x="6" text-anchor="start" paint-order="stroke" stroke="white" fill="currentColor">Sum</text><text transform="rotate(75.62300319488818) translate(217,0) rotate(0)" dy="0.31em" x="6" text-anchor="start" paint-order="stroke" stroke="white" fill="currentColor">Variable</text><text transform="rotate(77.92332268370606) translate(217,0) rotate(0)" dy="0.31em" x="6" text-anchor="start" paint-order="stroke" stroke="white" fill="currentColor">Variance</text><text transform="rotate(80.22364217252394) translate(217,0) rotate(0)" dy="0.31em" x="6" text-anchor="start" paint-order="stroke" stroke="white" fill="currentColor">Xor</text><text transform="rotate(82.52396166134184) translate(217,0) rotate(0)" dy="0.31em" x="-6" text-anchor="end" paint-order="stroke" stroke="white" fill="currentColor">methods</text><text transform="rotate(87.12460063897765) translate(217,0) rotate(0)" dy="0.31em" x="6" text-anchor="start" paint-order="stroke" stroke="white" fill="currentColor">IScaleMap</text><text transform="rotate(89.42492012779553) translate(217,0) rotate(0)" dy="0.31em" x="6" text-anchor="start" paint-order="stroke" stroke="white" fill="currentColor">LinearScale</text><text transform="rotate(91.72523961661344) translate(217,0) rotate(180)" dy="0.31em" x="-6" text-anchor="end" paint-order="stroke" stroke="white" fill="currentColor">LogScale</text><text transform="rotate(94.02555910543137) translate(217,0) rotate(180)" dy="0.31em" x="-6" text-anchor="end" paint-order="stroke" stroke="white" fill="currentColor">OrdinalScale</text><text transform="rotate(96.32587859424919) translate(217,0) rotate(180)" dy="0.31em" x="-6" text-anchor="end" paint-order="stroke" stroke="white" fill="currentColor">QuantileScale</text><text transform="rotate(98.6261980830671) translate(217,0) rotate(180)" dy="0.31em" x="-6" text-anchor="end" paint-order="stroke" stroke="white" fill="currentColor">QuantitativeScale</text><text transform="rotate(100.92651757188503) translate(217,0) rotate(180)" dy="0.31em" x="-6" text-anchor="end" paint-order="stroke" stroke="white" fill="currentColor">RootScale</text><text transform="rotate(103.2268370607029) translate(217,0) rotate(180)" dy="0.31em" x="-6" text-anchor="end" paint-order="stroke" stroke="white" fill="currentColor">Scale</text><text transform="rotate(105.52715654952081) translate(217,0) rotate(180)" dy="0.31em" x="-6" text-anchor="end" paint-order="stroke" stroke="white" fill="currentColor">ScaleType</text><text transform="rotate(107.82747603833869) translate(217,0) rotate(180)" dy="0.31em" x="-6" text-anchor="end" paint-order="stroke" stroke="white" fill="currentColor">TimeScale</text><text transform="rotate(112.42811501597447) translate(217,0) rotate(180)" dy="0.31em" x="-6" text-anchor="end" paint-order="stroke" stroke="white" fill="currentColor">Arrays</text><text transform="rotate(114.72843450479235) translate(217,0) rotate(180)" dy="0.31em" x="-6" text-anchor="end" paint-order="stroke" stroke="white" fill="currentColor">Colors</text><text transform="rotate(117.02875399361025) translate(217,0) rotate(180)" dy="0.31em" x="-6" text-anchor="end" paint-order="stroke" stroke="white" fill="currentColor">Dates</text><text transform="rotate(119.32907348242813) translate(217,0) rotate(180)" dy="0.31em" x="-6" text-anchor="end" paint-order="stroke" stroke="white" fill="currentColor">Displays</text><text transform="rotate(121.629392971246) translate(217,0) rotate(180)" dy="0.31em" x="-6" text-anchor="end" paint-order="stroke" stroke="white" fill="currentColor">Filter</text><text transform="rotate(123.92971246006391) translate(217,0) rotate(180)" dy="0.31em" x="-6" text-anchor="end" paint-order="stroke" stroke="white" fill="currentColor">Geometry</text><text transform="rotate(126.23003194888179) translate(217,0) rotate(180)" dy="0.31em" x="-6" text-anchor="end" paint-order="stroke" stroke="white" fill="currentColor">IEvaluable</text><text transform="rotate(128.5303514376997) translate(217,0) rotate(180)" dy="0.31em" x="-6" text-anchor="end" paint-order="stroke" stroke="white" fill="currentColor">IPredicate</text><text transform="rotate(130.83067092651757) translate(217,0) rotate(180)" dy="0.31em" x="-6" text-anchor="end" paint-order="stroke" stroke="white" fill="currentColor">IValueProxy</text><text transform="rotate(133.1309904153355) translate(217,0) rotate(180)" dy="0.31em" x="-6" text-anchor="end" paint-order="stroke" stroke="white" fill="currentColor">Maths</text><text transform="rotate(135.43130990415338) translate(217,0) rotate(180)" dy="0.31em" x="-6" text-anchor="end" paint-order="stroke" stroke="white" fill="currentColor">Orientation</text><text transform="rotate(137.73162939297123) translate(217,0) rotate(180)" dy="0.31em" x="-6" text-anchor="end" paint-order="stroke" stroke="white" fill="currentColor">Property</text><text transform="rotate(140.03194888178916) translate(217,0) rotate(180)" dy="0.31em" x="-6" text-anchor="end" paint-order="stroke" stroke="white" fill="currentColor">Shapes</text><text transform="rotate(142.33226837060707) translate(217,0) rotate(180)" dy="0.31em" x="-6" text-anchor="end" paint-order="stroke" stroke="white" fill="currentColor">Sort</text><text transform="rotate(144.63258785942494) translate(217,0) rotate(180)" dy="0.31em" x="-6" text-anchor="end" paint-order="stroke" stroke="white" fill="currentColor">Stats</text><text transform="rotate(146.93290734824285) translate(217,0) rotate(180)" dy="0.31em" x="-6" text-anchor="end" paint-order="stroke" stroke="white" fill="currentColor">Strings</text><text transform="rotate(149.23322683706073) translate(217,0) rotate(180)" dy="0.31em" x="6" text-anchor="start" paint-order="stroke" stroke="white" fill="currentColor">heap</text><text transform="rotate(154.60063897763578) translate(217,0) rotate(180)" dy="0.31em" x="6" text-anchor="start" paint-order="stroke" stroke="white" fill="currentColor">math</text><text transform="rotate(161.50159744408947) translate(217,0) rotate(180)" dy="0.31em" x="6" text-anchor="start" paint-order="stroke" stroke="white" fill="currentColor">palette</text><text transform="rotate(167.6357827476038) translate(217,0) rotate(180)" dy="0.31em" x="-6" text-anchor="end" paint-order="stroke" stroke="white" fill="currentColor">Visualization</text><text transform="rotate(169.93610223642173) translate(217,0) rotate(180)" dy="0.31em" x="6" text-anchor="start" paint-order="stroke" stroke="white" fill="currentColor">axis</text><text transform="rotate(183.73801916932905) translate(217,0) rotate(180)" dy="0.31em" x="6" text-anchor="start" paint-order="stroke" stroke="white" fill="currentColor">controls</text><text transform="rotate(200.60702875399357) translate(217,0) rotate(180)" dy="0.31em" x="6" text-anchor="start" paint-order="stroke" stroke="white" fill="currentColor">data</text><text transform="rotate(212.10862619808302) translate(217,0) rotate(180)" dy="0.31em" x="6" text-anchor="start" paint-order="stroke" stroke="white" fill="currentColor">events</text><text transform="rotate(219.0095846645367) translate(217,0) rotate(180)" dy="0.31em" x="6" text-anchor="start" paint-order="stroke" stroke="white" fill="currentColor">legend</text><text transform="rotate(242.01277955271559) translate(217,0) rotate(180)" dy="0.31em" x="6" text-anchor="start" paint-order="stroke" stroke="white" fill="currentColor">operator</text><text transform="rotate(-88.4664536741214) translate(325.5,0) rotate(0)" dy="0.31em" x="6" text-anchor="start" paint-order="stroke" stroke="white" fill="currentColor">AgglomerativeCluster</text><text transform="rotate(-86.9329073482428) translate(325.5,0) rotate(0)" dy="0.31em" x="6" text-anchor="start" paint-order="stroke" stroke="white" fill="currentColor">CommunityStructure</text><text transform="rotate(-85.39936102236422) translate(325.5,0) rotate(0)" dy="0.31em" x="6" text-anchor="start" paint-order="stroke" stroke="white" fill="currentColor">HierarchicalCluster</text><text transform="rotate(-83.86581469648561) translate(325.5,0) rotate(0)" dy="0.31em" x="6" text-anchor="start" paint-order="stroke" stroke="white" fill="currentColor">MergeEdge</text><text transform="rotate(-80.79872204472842) translate(325.5,0) rotate(0)" dy="0.31em" x="6" text-anchor="start" paint-order="stroke" stroke="white" fill="currentColor">BetweennessCentrality</text><text transform="rotate(-79.26517571884983) translate(325.5,0) rotate(0)" dy="0.31em" x="6" text-anchor="start" paint-order="stroke" stroke="white" fill="currentColor">LinkDistance</text><text transform="rotate(-77.73162939297123) translate(325.5,0) rotate(0)" dy="0.31em" x="6" text-anchor="start" paint-order="stroke" stroke="white" fill="currentColor">MaxFlowMinCut</text><text transform="rotate(-76.19808306709264) translate(325.5,0) rotate(0)" dy="0.31em" x="6" text-anchor="start" paint-order="stroke" stroke="white" fill="currentColor">ShortestPaths</text><text transform="rotate(-74.66453674121405) translate(325.5,0) rotate(0)" dy="0.31em" x="6" text-anchor="start" paint-order="stroke" stroke="white" fill="currentColor">SpanningTree</text><text transform="rotate(-71.59744408945686) translate(325.5,0) rotate(0)" dy="0.31em" x="6" text-anchor="start" paint-order="stroke" stroke="white" fill="currentColor">AspectRatioBanker</text><text transform="rotate(-47.82747603833864) translate(325.5,0) rotate(0)" dy="0.31em" x="6" text-anchor="start" paint-order="stroke" stroke="white" fill="currentColor">ArrayInterpolator</text><text transform="rotate(-46.29392971246004) translate(325.5,0) rotate(0)" dy="0.31em" x="6" text-anchor="start" paint-order="stroke" stroke="white" fill="currentColor">ColorInterpolator</text><text transform="rotate(-44.760383386581445) translate(325.5,0) rotate(0)" dy="0.31em" x="6" text-anchor="start" paint-order="stroke" stroke="white" fill="currentColor">DateInterpolator</text><text transform="rotate(-43.22683706070286) translate(325.5,0) rotate(0)" dy="0.31em" x="6" text-anchor="start" paint-order="stroke" stroke="white" fill="currentColor">Interpolator</text><text transform="rotate(-41.69329073482427) translate(325.5,0) rotate(0)" dy="0.31em" x="6" text-anchor="start" paint-order="stroke" stroke="white" fill="currentColor">MatrixInterpolator</text><text transform="rotate(-40.15974440894566) translate(325.5,0) rotate(0)" dy="0.31em" x="6" text-anchor="start" paint-order="stroke" stroke="white" fill="currentColor">NumberInterpolator</text><text transform="rotate(-38.626198083067074) translate(325.5,0) rotate(0)" dy="0.31em" x="6" text-anchor="start" paint-order="stroke" stroke="white" fill="currentColor">ObjectInterpolator</text><text transform="rotate(-37.09265175718848) translate(325.5,0) rotate(0)" dy="0.31em" x="6" text-anchor="start" paint-order="stroke" stroke="white" fill="currentColor">PointInterpolator</text><text transform="rotate(-35.55910543130988) translate(325.5,0) rotate(0)" dy="0.31em" x="6" text-anchor="start" paint-order="stroke" stroke="white" fill="currentColor">RectangleInterpolator</text><text transform="rotate(-26.35782747603833) translate(325.5,0) rotate(0)" dy="0.31em" x="6" text-anchor="start" paint-order="stroke" stroke="white" fill="currentColor">Converters</text><text transform="rotate(-24.824281150159734) translate(325.5,0) rotate(0)" dy="0.31em" x="6" text-anchor="start" paint-order="stroke" stroke="white" fill="currentColor">DelimitedTextConverter</text><text transform="rotate(-23.290734824281145) translate(325.5,0) rotate(0)" dy="0.31em" x="6" text-anchor="start" paint-order="stroke" stroke="white" fill="currentColor">GraphMLConverter</text><text transform="rotate(-21.75718849840254) translate(325.5,0) rotate(0)" dy="0.31em" x="6" text-anchor="start" paint-order="stroke" stroke="white" fill="currentColor">IDataConverter</text><text transform="rotate(-20.223642172523967) translate(325.5,0) rotate(0)" dy="0.31em" x="6" text-anchor="start" paint-order="stroke" stroke="white" fill="currentColor">JSONConverter</text><text transform="rotate(58.75399361022363) translate(325.5,0) rotate(0)" dy="0.31em" x="6" text-anchor="start" paint-order="stroke" stroke="white" fill="currentColor">_</text><text transform="rotate(60.28753993610226) translate(325.5,0) rotate(0)" dy="0.31em" x="6" text-anchor="start" paint-order="stroke" stroke="white" fill="currentColor">add</text><text transform="rotate(61.82108626198084) translate(325.5,0) rotate(0)" dy="0.31em" x="6" text-anchor="start" paint-order="stroke" stroke="white" fill="currentColor">and</text><text transform="rotate(63.35463258785944) translate(325.5,0) rotate(0)" dy="0.31em" x="6" text-anchor="start" paint-order="stroke" stroke="white" fill="currentColor">average</text><text transform="rotate(64.88817891373802) translate(325.5,0) rotate(0)" dy="0.31em" x="6" text-anchor="start" paint-order="stroke" stroke="white" fill="currentColor">count</text><text transform="rotate(66.42172523961659) translate(325.5,0) rotate(0)" dy="0.31em" x="6" text-anchor="start" paint-order="stroke" stroke="white" fill="currentColor">distinct</text><text transform="rotate(67.95527156549522) translate(325.5,0) rotate(0)" dy="0.31em" x="6" text-anchor="start" paint-order="stroke" stroke="white" fill="currentColor">div</text><text transform="rotate(69.48881789137383) translate(325.5,0) rotate(0)" dy="0.31em" x="6" text-anchor="start" paint-order="stroke" stroke="white" fill="currentColor">eq</text><text transform="rotate(71.0223642172524) translate(325.5,0) rotate(0)" dy="0.31em" x="6" text-anchor="start" paint-order="stroke" stroke="white" fill="currentColor">fn</text><text transform="rotate(72.55591054313098) translate(325.5,0) rotate(0)" dy="0.31em" x="6" text-anchor="start" paint-order="stroke" stroke="white" fill="currentColor">gt</text><text transform="rotate(74.08945686900958) translate(325.5,0) rotate(0)" dy="0.31em" x="6" text-anchor="start" paint-order="stroke" stroke="white" fill="currentColor">gte</text><text transform="rotate(75.62300319488818) translate(325.5,0) rotate(0)" dy="0.31em" x="6" text-anchor="start" paint-order="stroke" stroke="white" fill="currentColor">iff</text><text transform="rotate(77.15654952076676) translate(325.5,0) rotate(0)" dy="0.31em" x="6" text-anchor="start" paint-order="stroke" stroke="white" fill="currentColor">isa</text><text transform="rotate(78.69009584664539) translate(325.5,0) rotate(0)" dy="0.31em" x="6" text-anchor="start" paint-order="stroke" stroke="white" fill="currentColor">lt</text><text transform="rotate(80.22364217252394) translate(325.5,0) rotate(0)" dy="0.31em" x="6" text-anchor="start" paint-order="stroke" stroke="white" fill="currentColor">lte</text><text transform="rotate(81.75718849840257) translate(325.5,0) rotate(0)" dy="0.31em" x="6" text-anchor="start" paint-order="stroke" stroke="white" fill="currentColor">max</text><text transform="rotate(83.29073482428117) translate(325.5,0) rotate(0)" dy="0.31em" x="6" text-anchor="start" paint-order="stroke" stroke="white" fill="currentColor">min</text><text transform="rotate(84.82428115015975) translate(325.5,0) rotate(0)" dy="0.31em" x="6" text-anchor="start" paint-order="stroke" stroke="white" fill="currentColor">mod</text><text transform="rotate(86.35782747603832) translate(325.5,0) rotate(0)" dy="0.31em" x="6" text-anchor="start" paint-order="stroke" stroke="white" fill="currentColor">mul</text><text transform="rotate(87.89137380191693) translate(325.5,0) rotate(0)" dy="0.31em" x="6" text-anchor="start" paint-order="stroke" stroke="white" fill="currentColor">neq</text><text transform="rotate(89.42492012779553) translate(325.5,0) rotate(0)" dy="0.31em" x="6" text-anchor="start" paint-order="stroke" stroke="white" fill="currentColor">not</text><text transform="rotate(90.9584664536741) translate(325.5,0) rotate(180)" dy="0.31em" x="-6" text-anchor="end" paint-order="stroke" stroke="white" fill="currentColor">or</text><text transform="rotate(92.49201277955271) translate(325.5,0) rotate(180)" dy="0.31em" x="-6" text-anchor="end" paint-order="stroke" stroke="white" fill="currentColor">orderby</text><text transform="rotate(94.02555910543128) translate(325.5,0) rotate(180)" dy="0.31em" x="-6" text-anchor="end" paint-order="stroke" stroke="white" fill="currentColor">range</text><text transform="rotate(95.55910543130986) translate(325.5,0) rotate(180)" dy="0.31em" x="-6" text-anchor="end" paint-order="stroke" stroke="white" fill="currentColor">select</text><text transform="rotate(97.09265175718849) translate(325.5,0) rotate(180)" dy="0.31em" x="-6" text-anchor="end" paint-order="stroke" stroke="white" fill="currentColor">stddev</text><text transform="rotate(98.62619808306707) translate(325.5,0) rotate(180)" dy="0.31em" x="-6" text-anchor="end" paint-order="stroke" stroke="white" fill="currentColor">sub</text><text transform="rotate(100.1597444089457) translate(325.5,0) rotate(180)" dy="0.31em" x="-6" text-anchor="end" paint-order="stroke" stroke="white" fill="currentColor">sum</text><text transform="rotate(101.6932907348243) translate(325.5,0) rotate(180)" dy="0.31em" x="-6" text-anchor="end" paint-order="stroke" stroke="white" fill="currentColor">update</text><text transform="rotate(103.22683706070285) translate(325.5,0) rotate(180)" dy="0.31em" x="-6" text-anchor="end" paint-order="stroke" stroke="white" fill="currentColor">variance</text><text transform="rotate(104.76038338658148) translate(325.5,0) rotate(180)" dy="0.31em" x="-6" text-anchor="end" paint-order="stroke" stroke="white" fill="currentColor">where</text><text transform="rotate(106.29392971246006) translate(325.5,0) rotate(180)" dy="0.31em" x="-6" text-anchor="end" paint-order="stroke" stroke="white" fill="currentColor">xor</text><text transform="rotate(148.46645367412142) translate(325.5,0) rotate(180)" dy="0.31em" x="-6" text-anchor="end" paint-order="stroke" stroke="white" fill="currentColor">FibonacciHeap</text><text transform="rotate(149.99999999999997) translate(325.5,0) rotate(180)" dy="0.31em" x="-6" text-anchor="end" paint-order="stroke" stroke="white" fill="currentColor">HeapNode</text><text transform="rotate(153.06709265175724) translate(325.5,0) rotate(180)" dy="0.31em" x="-6" text-anchor="end" paint-order="stroke" stroke="white" fill="currentColor">DenseMatrix</text><text transform="rotate(154.60063897763578) translate(325.5,0) rotate(180)" dy="0.31em" x="-6" text-anchor="end" paint-order="stroke" stroke="white" fill="currentColor">IMatrix</text><text transform="rotate(156.13418530351439) translate(325.5,0) rotate(180)" dy="0.31em" x="-6" text-anchor="end" paint-order="stroke" stroke="white" fill="currentColor">SparseMatrix</text><text transform="rotate(159.20127795527156) translate(325.5,0) rotate(180)" dy="0.31em" x="-6" text-anchor="end" paint-order="stroke" stroke="white" fill="currentColor">ColorPalette</text><text transform="rotate(160.73482428115017) translate(325.5,0) rotate(180)" dy="0.31em" x="-6" text-anchor="end" paint-order="stroke" stroke="white" fill="currentColor">Palette</text><text transform="rotate(162.26837060702877) translate(325.5,0) rotate(180)" dy="0.31em" x="-6" text-anchor="end" paint-order="stroke" stroke="white" fill="currentColor">ShapePalette</text><text transform="rotate(163.80191693290735) translate(325.5,0) rotate(180)" dy="0.31em" x="-6" text-anchor="end" paint-order="stroke" stroke="white" fill="currentColor">SizePalette</text><text transform="rotate(166.86900958466452) translate(325.5,0) rotate(180)" dy="0.31em" x="-6" text-anchor="end" paint-order="stroke" stroke="white" fill="currentColor">Axes</text><text transform="rotate(168.40255591054307) translate(325.5,0) rotate(180)" dy="0.31em" x="-6" text-anchor="end" paint-order="stroke" stroke="white" fill="currentColor">Axis</text><text transform="rotate(169.93610223642173) translate(325.5,0) rotate(180)" dy="0.31em" x="-6" text-anchor="end" paint-order="stroke" stroke="white" fill="currentColor">AxisGridLine</text><text transform="rotate(171.46964856230028) translate(325.5,0) rotate(180)" dy="0.31em" x="-6" text-anchor="end" paint-order="stroke" stroke="white" fill="currentColor">AxisLabel</text><text transform="rotate(173.00319488817888) translate(325.5,0) rotate(180)" dy="0.31em" x="-6" text-anchor="end" paint-order="stroke" stroke="white" fill="currentColor">CartesianAxes</text><text transform="rotate(176.0702875399361) translate(325.5,0) rotate(180)" dy="0.31em" x="-6" text-anchor="end" paint-order="stroke" stroke="white" fill="currentColor">AnchorControl</text><text transform="rotate(177.6038338658147) translate(325.5,0) rotate(180)" dy="0.31em" x="-6" text-anchor="end" paint-order="stroke" stroke="white" fill="currentColor">ClickControl</text><text transform="rotate(179.1373801916933) translate(325.5,0) rotate(180)" dy="0.31em" x="-6" text-anchor="end" paint-order="stroke" stroke="white" fill="currentColor">Control</text><text transform="rotate(180.67092651757184) translate(325.5,0) rotate(180)" dy="0.31em" x="-6" text-anchor="end" paint-order="stroke" stroke="white" fill="currentColor">ControlList</text><text transform="rotate(182.20447284345045) translate(325.5,0) rotate(180)" dy="0.31em" x="-6" text-anchor="end" paint-order="stroke" stroke="white" fill="currentColor">DragControl</text><text transform="rotate(183.73801916932905) translate(325.5,0) rotate(180)" dy="0.31em" x="-6" text-anchor="end" paint-order="stroke" stroke="white" fill="currentColor">ExpandControl</text><text transform="rotate(185.2715654952076) translate(325.5,0) rotate(180)" dy="0.31em" x="-6" text-anchor="end" paint-order="stroke" stroke="white" fill="currentColor">HoverControl</text><text transform="rotate(186.8051118210862) translate(325.5,0) rotate(180)" dy="0.31em" x="-6" text-anchor="end" paint-order="stroke" stroke="white" fill="currentColor">IControl</text><text transform="rotate(188.33865814696486) translate(325.5,0) rotate(180)" dy="0.31em" x="-6" text-anchor="end" paint-order="stroke" stroke="white" fill="currentColor">PanZoomControl</text><text transform="rotate(189.8722044728434) translate(325.5,0) rotate(180)" dy="0.31em" x="-6" text-anchor="end" paint-order="stroke" stroke="white" fill="currentColor">SelectionControl</text><text transform="rotate(191.405750798722) translate(325.5,0) rotate(180)" dy="0.31em" x="-6" text-anchor="end" paint-order="stroke" stroke="white" fill="currentColor">TooltipControl</text><text transform="rotate(194.47284345047927) translate(325.5,0) rotate(180)" dy="0.31em" x="-6" text-anchor="end" paint-order="stroke" stroke="white" fill="currentColor">Data</text><text transform="rotate(196.00638977635782) translate(325.5,0) rotate(180)" dy="0.31em" x="-6" text-anchor="end" paint-order="stroke" stroke="white" fill="currentColor">DataList</text><text transform="rotate(197.53993610223637) translate(325.5,0) rotate(180)" dy="0.31em" x="-6" text-anchor="end" paint-order="stroke" stroke="white" fill="currentColor">DataSprite</text><text transform="rotate(199.07348242811497) translate(325.5,0) rotate(180)" dy="0.31em" x="-6" text-anchor="end" paint-order="stroke" stroke="white" fill="currentColor">EdgeSprite</text><text transform="rotate(200.60702875399363) translate(325.5,0) rotate(180)" dy="0.31em" x="-6" text-anchor="end" paint-order="stroke" stroke="white" fill="currentColor">NodeSprite</text><text transform="rotate(202.14057507987218) translate(325.5,0) rotate(180)" dy="0.31em" x="-6" text-anchor="end" paint-order="stroke" stroke="white" fill="currentColor">ScaleBinding</text><text transform="rotate(203.67412140575078) translate(325.5,0) rotate(180)" dy="0.31em" x="-6" text-anchor="end" paint-order="stroke" stroke="white" fill="currentColor">Tree</text><text transform="rotate(205.20766773162939) translate(325.5,0) rotate(180)" dy="0.31em" x="-6" text-anchor="end" paint-order="stroke" stroke="white" fill="currentColor">TreeBuilder</text><text transform="rotate(206.741214057508) translate(325.5,0) rotate(180)" dy="0.31em" x="6" text-anchor="start" paint-order="stroke" stroke="white" fill="currentColor">render</text><text transform="rotate(209.80830670926508) translate(325.5,0) rotate(180)" dy="0.31em" x="-6" text-anchor="end" paint-order="stroke" stroke="white" fill="currentColor">DataEvent</text><text transform="rotate(211.34185303514374) translate(325.5,0) rotate(180)" dy="0.31em" x="-6" text-anchor="end" paint-order="stroke" stroke="white" fill="currentColor">SelectionEvent</text><text transform="rotate(212.8753993610223) translate(325.5,0) rotate(180)" dy="0.31em" x="-6" text-anchor="end" paint-order="stroke" stroke="white" fill="currentColor">TooltipEvent</text><text transform="rotate(214.40894568690095) translate(325.5,0) rotate(180)" dy="0.31em" x="-6" text-anchor="end" paint-order="stroke" stroke="white" fill="currentColor">VisualizationEvent</text><text transform="rotate(217.4760383386581) translate(325.5,0) rotate(180)" dy="0.31em" x="-6" text-anchor="end" paint-order="stroke" stroke="white" fill="currentColor">Legend</text><text transform="rotate(219.0095846645367) translate(325.5,0) rotate(180)" dy="0.31em" x="-6" text-anchor="end" paint-order="stroke" stroke="white" fill="currentColor">LegendItem</text><text transform="rotate(220.5431309904153) translate(325.5,0) rotate(180)" dy="0.31em" x="-6" text-anchor="end" paint-order="stroke" stroke="white" fill="currentColor">LegendRange</text><text transform="rotate(223.6102236421724) translate(325.5,0) rotate(180)" dy="0.31em" x="-6" text-anchor="end" paint-order="stroke" stroke="white" fill="currentColor">IOperator</text><text transform="rotate(225.14376996805106) translate(325.5,0) rotate(180)" dy="0.31em" x="-6" text-anchor="end" paint-order="stroke" stroke="white" fill="currentColor">Operator</text><text transform="rotate(226.67731629392972) translate(325.5,0) rotate(180)" dy="0.31em" x="-6" text-anchor="end" paint-order="stroke" stroke="white" fill="currentColor">OperatorList</text><text transform="rotate(228.21086261980827) translate(325.5,0) rotate(180)" dy="0.31em" x="-6" text-anchor="end" paint-order="stroke" stroke="white" fill="currentColor">OperatorSequence</text><text transform="rotate(229.74440894568687) translate(325.5,0) rotate(180)" dy="0.31em" x="-6" text-anchor="end" paint-order="stroke" stroke="white" fill="currentColor">OperatorSwitch</text><text transform="rotate(231.27795527156547) translate(325.5,0) rotate(180)" dy="0.31em" x="-6" text-anchor="end" paint-order="stroke" stroke="white" fill="currentColor">SortOperator</text><text transform="rotate(232.81150159744402) translate(325.5,0) rotate(180)" dy="0.31em" x="6" text-anchor="start" paint-order="stroke" stroke="white" fill="currentColor">distortion</text><text transform="rotate(238.56230031948877) translate(325.5,0) rotate(180)" dy="0.31em" x="6" text-anchor="start" paint-order="stroke" stroke="white" fill="currentColor">encoder</text><text transform="rotate(244.31309904153352) translate(325.5,0) rotate(180)" dy="0.31em" x="6" text-anchor="start" paint-order="stroke" stroke="white" fill="currentColor">filter</text><text transform="rotate(248.91373801916927) translate(325.5,0) rotate(180)" dy="0.31em" x="6" text-anchor="start" paint-order="stroke" stroke="white" fill="currentColor">label</text><text transform="rotate(260.4153354632587) translate(325.5,0) rotate(180)" dy="0.31em" x="6" text-anchor="start" paint-order="stroke" stroke="white" fill="currentColor">layout</text><text transform="rotate(205.01597444089452) translate(434,0) rotate(180)" dy="0.31em" x="-6" text-anchor="end" paint-order="stroke" stroke="white" fill="currentColor">ArrowType</text><text transform="rotate(206.16613418530346) translate(434,0) rotate(180)" dy="0.31em" x="-6" text-anchor="end" paint-order="stroke" stroke="white" fill="currentColor">EdgeRenderer</text><text transform="rotate(207.31629392971246) translate(434,0) rotate(180)" dy="0.31em" x="-6" text-anchor="end" paint-order="stroke" stroke="white" fill="currentColor">IRenderer</text><text transform="rotate(208.4664536741214) translate(434,0) rotate(180)" dy="0.31em" x="-6" text-anchor="end" paint-order="stroke" stroke="white" fill="currentColor">ShapeRenderer</text><text transform="rotate(231.66134185303508) translate(434,0) rotate(180)" dy="0.31em" x="-6" text-anchor="end" paint-order="stroke" stroke="white" fill="currentColor">BifocalDistortion</text><text transform="rotate(232.81150159744402) translate(434,0) rotate(180)" dy="0.31em" x="-6" text-anchor="end" paint-order="stroke" stroke="white" fill="currentColor">Distortion</text><text transform="rotate(233.96166134185296) translate(434,0) rotate(180)" dy="0.31em" x="-6" text-anchor="end" paint-order="stroke" stroke="white" fill="currentColor">FisheyeDistortion</text><text transform="rotate(236.2619808306709) translate(434,0) rotate(180)" dy="0.31em" x="-6" text-anchor="end" paint-order="stroke" stroke="white" fill="currentColor">ColorEncoder</text><text transform="rotate(237.41214057507983) translate(434,0) rotate(180)" dy="0.31em" x="-6" text-anchor="end" paint-order="stroke" stroke="white" fill="currentColor">Encoder</text><text transform="rotate(238.56230031948877) translate(434,0) rotate(180)" dy="0.31em" x="-6" text-anchor="end" paint-order="stroke" stroke="white" fill="currentColor">PropertyEncoder</text><text transform="rotate(239.7124600638977) translate(434,0) rotate(180)" dy="0.31em" x="-6" text-anchor="end" paint-order="stroke" stroke="white" fill="currentColor">ShapeEncoder</text><text transform="rotate(240.86261980830665) translate(434,0) rotate(180)" dy="0.31em" x="-6" text-anchor="end" paint-order="stroke" stroke="white" fill="currentColor">SizeEncoder</text><text transform="rotate(243.16293929712458) translate(434,0) rotate(180)" dy="0.31em" x="-6" text-anchor="end" paint-order="stroke" stroke="white" fill="currentColor">FisheyeTreeFilter</text><text transform="rotate(244.31309904153352) translate(434,0) rotate(180)" dy="0.31em" x="-6" text-anchor="end" paint-order="stroke" stroke="white" fill="currentColor">GraphDistanceFilter</text><text transform="rotate(245.46325878594246) translate(434,0) rotate(180)" dy="0.31em" x="-6" text-anchor="end" paint-order="stroke" stroke="white" fill="currentColor">VisibilityFilter</text><text transform="rotate(247.76357827476033) translate(434,0) rotate(180)" dy="0.31em" x="-6" text-anchor="end" paint-order="stroke" stroke="white" fill="currentColor">Labeler</text><text transform="rotate(248.91373801916927) translate(434,0) rotate(180)" dy="0.31em" x="-6" text-anchor="end" paint-order="stroke" stroke="white" fill="currentColor">RadialLabeler</text><text transform="rotate(250.0638977635782) translate(434,0) rotate(180)" dy="0.31em" x="-6" text-anchor="end" paint-order="stroke" stroke="white" fill="currentColor">StackedAreaLabeler</text><text transform="rotate(252.3642172523961) translate(434,0) rotate(180)" dy="0.31em" x="-6" text-anchor="end" paint-order="stroke" stroke="white" fill="currentColor">AxisLayout</text><text transform="rotate(253.51437699680503) translate(434,0) rotate(180)" dy="0.31em" x="-6" text-anchor="end" paint-order="stroke" stroke="white" fill="currentColor">BundledEdgeRouter</text><text transform="rotate(254.66453674121396) translate(434,0) rotate(180)" dy="0.31em" x="-6" text-anchor="end" paint-order="stroke" stroke="white" fill="currentColor">CircleLayout</text><text transform="rotate(255.8146964856229) translate(434,0) rotate(180)" dy="0.31em" x="-6" text-anchor="end" paint-order="stroke" stroke="white" fill="currentColor">CirclePackingLayout</text><text transform="rotate(256.9648562300319) translate(434,0) rotate(180)" dy="0.31em" x="-6" text-anchor="end" paint-order="stroke" stroke="white" fill="currentColor">DendrogramLayout</text><text transform="rotate(258.11501597444084) translate(434,0) rotate(180)" dy="0.31em" x="-6" text-anchor="end" paint-order="stroke" stroke="white" fill="currentColor">ForceDirectedLayout</text><text transform="rotate(259.2651757188498) translate(434,0) rotate(180)" dy="0.31em" x="-6" text-anchor="end" paint-order="stroke" stroke="white" fill="currentColor">IcicleTreeLayout</text><text transform="rotate(260.4153354632587) translate(434,0) rotate(180)" dy="0.31em" x="-6" text-anchor="end" paint-order="stroke" stroke="white" fill="currentColor">IndentedTreeLayout</text><text transform="rotate(261.56549520766765) translate(434,0) rotate(180)" dy="0.31em" x="-6" text-anchor="end" paint-order="stroke" stroke="white" fill="currentColor">Layout</text><text transform="rotate(262.7156549520766) translate(434,0) rotate(180)" dy="0.31em" x="-6" text-anchor="end" paint-order="stroke" stroke="white" fill="currentColor">NodeLinkTreeLayout</text><text transform="rotate(263.86581469648553) translate(434,0) rotate(180)" dy="0.31em" x="-6" text-anchor="end" paint-order="stroke" stroke="white" fill="currentColor">PieLayout</text><text transform="rotate(265.0159744408945) translate(434,0) rotate(180)" dy="0.31em" x="-6" text-anchor="end" paint-order="stroke" stroke="white" fill="currentColor">RadialTreeLayout</text><text transform="rotate(266.16613418530346) translate(434,0) rotate(180)" dy="0.31em" x="-6" text-anchor="end" paint-order="stroke" stroke="white" fill="currentColor">RandomLayout</text><text transform="rotate(267.3162939297124) translate(434,0) rotate(180)" dy="0.31em" x="-6" text-anchor="end" paint-order="stroke" stroke="white" fill="currentColor">StackedAreaLayout</text><text transform="rotate(268.46645367412134) translate(434,0) rotate(180)" dy="0.31em" x="-6" text-anchor="end" paint-order="stroke" stroke="white" fill="currentColor">TreeMapLayout</text></g></svg>